<svg xmlns="http://www.w3.org/2000/svg" viewBox="0 0 500 500"><g id="freepik--Mountains--inject-5"><g id="freepik--mountains--inject-5"><path d="M13.59,152.13c42-34.25,110-89.14,114.44-88.91,5.15.29,14.84,8.42,14.84,8.42s31.51-33.34,37.66-34.13c3.89-.5,40.73,36.94,67.28,64.54,15.42,16,27.38,28.72,27.38,28.72V324.4H13.59Z" style="fill:#e0e0e0"></path><path d="M173.59,50.64c-4.16,5.41,4,1.21,8,2.44S167,67.68,170.31,70.87c1.82,1.77,13.65-3,11.43,1.34-.72,1.38-12.89,11.37-7.21,12.13,3.38.45,8-1.39,6.08,3.65a26.88,26.88,0,0,1-5.71,8.9l-32-25.25s30.09-31.84,37.2-34l.46-.11C181.82,38,177.75,45.22,173.59,50.64Z" style="opacity:0.1"></path><path d="M183,57.84c-3.89.32-10.21,4.24-12.85,1.76s-8.57-6.88-11.16-4.34c8.76-8.56,18.42-17.35,21.54-17.75,2.06-.26,13.31,10.07,27.38,23.94-5.91-3.61-9.95.8-13.47,1.77S186.89,57.51,183,57.84Z" style="fill:#f5f5f5"></path><path d="M13.59,152.14C55.58,117.88,123.64,63,128,63.22l.62.09c2.08,1-3.24,7.57-4.36,10-1.22,2.63,10.21,0,10.68,1.77s-15.49,13.82-15.68,16,14.34-2,14.78-.09-16.54,15.7-16.79,19.73c-.12,2.2,6.12.55,11-1.24,3.36-1.24,8.92,0,4,6-2.1,2.58-78.69,78.44-118.69,118Z" style="opacity:0.1"></path><path d="M142.87,71.64,154.79,81c-3.6-2.84-6.86,1.76-11.92,1.57S135,77.9,130.12,79.32c-4,1.17-5.54,3-8.34,3.43-5.15.86-3.72-2.07-6.63-2.71-2-.44-12,1.15-16.09,2.93,14.63-11.27,26.62-19.87,29-19.75a7.82,7.82,0,0,1,1.83.37,19.77,19.77,0,0,1,3.48,1.49c.32.18.65.35,1,.54a60,60,0,0,1,6.15,4.12c1.46,1.11,2.41,1.9,2.41,1.9Z" style="fill:#f5f5f5"></path><path d="M247.81,120.27c22-19.6,43.29-37.94,46-37.8,4.37.24,29.63,19.82,29.63,19.82s37-41.43,42.21-42.11c3.69-.46,76.36,76.06,120.78,111V324.4H24.64S222.73,142.64,247.81,120.27Z" style="fill:#e0e0e0"></path><path d="M359.74,71.34c-3.54,4.6,3.44,1,6.79,2.07s-11.69,10.14-8.9,12.84c1.55,1.51,9.07-2.11,7.18,1.57s-21.71,28.5-21.71,28.5l-19.68-14s35.78-40.17,41.82-42l.39-.09C366.73,60.56,363.27,66.74,359.74,71.34Z" style="opacity:0.1"></path><path d="M291.84,92.55c-1,2.23,7.45-1.5,7.85,0s-11.49,14.15-11.64,16,10.51-4.12,10.87-2.48-14.06,13.34-14.26,16.77c-.12,1.86,5.19.46,9.31-1.06,2.85-1.05,7.58,0,3.43,5.09C295,129.84,87.67,324.4,87.67,324.4h-63s214.7-197.06,228-208.94C270,100,290.54,82.3,293.79,82.47a3,3,0,0,1,.58.11C296,83.53,292.78,90.5,291.84,92.55Z" style="opacity:0.1"></path><path d="M293.79,82.47c2.74.15,13.69,7.9,21.48,13.67-2.22.47-6,2.92-8.87,2.81-4.3-.16-7.59-4.29-10.65-2.51s-6.62,6.25-10.56,6.93c-6.34,1.08-7.3-1.66-10.69-.85a77.15,77.15,0,0,1-8.63,1.29C279.13,92.3,291.35,82.34,293.79,82.47Z" style="fill:#f5f5f5"></path><path d="M379.24,82.12c-4.73-1.09-8.2-4.94-11.51-4.66s-8.67,3.61-10.92,1.5-5.12-3.72-7.83-2.89l-1.75.55c7.9-8.16,15.36-15.34,18-16.32a2.73,2.73,0,0,1,.4-.11.66.66,0,0,1,.14,0c1.54.31,9.45,7.74,21,18.87C383.93,80.4,382.23,82.81,379.24,82.12Z" style="fill:#f5f5f5"></path></g></g><g id="freepik--Bushes--inject-5"><g id="freepik--bushes--inject-5"><g id="freepik--bushes--inject-5"><path d="M12.93,296.49c-6.73-4.79-6.68-17.22,1.87-19.88-5.9-5.91-4.12-18.64,4.43-19.43-2.09-5.22-1.06-12.37,5.65-13.69-2.13-6.4,3.8-10.84,9.74-8.54.26-6.75,9.82-7.14,12-2.39-.12-2.61,3.79-7.45,6.3-7.46-4.33-3.39-3.13-10.19.59-11.09-5.06-3.84-2.35-12.6,3.69-12.51-4.05-6.39,4.59-13.06,10-11.09-3-7.17,11.16-12.88,14.24-5.28,5.43-8.95,24.07-3.68,21.58,8,4.45-.56,6.33,2.33,4.81,6.68A4.86,4.86,0,0,1,115,202.9a3.44,3.44,0,0,1,2.86-4.49c-5.91-2.4-1.76-11.18,3.69-10.84-5.16-6.62,5.3-14.32,10.86-9.06,2.59-6.08,11.82-4.8,11.22,2.33,2.05-3.72,6.07-3.45,9.38-1.47,4.56,2.74,3.95,7.62,1.44,11.57,1.89-2.26,7.66-3.5,8.54.24a4.52,4.52,0,0,1,6.52-.75c1.7-6.13,12.68-6.93,14.76.63a5.13,5.13,0,0,1,6.86,2c1.63,2.53.92,5.57.51,8.34a3.38,3.38,0,0,1,5.32,4.13,7.14,7.14,0,0,1,10.3,2.48,12.77,12.77,0,0,1,16.31-6.39c1.44.64,2.91,1.87,2.75,3.44,1.38-1.67,3.15-3.24,5.31-3.48s4.59,1.44,4.41,3.6a7.68,7.68,0,0,1,13.23,4.15c.9-3.87,6.2-5.9,9.46-3.61.45-4.88,5.71-8.57,10.55-7.81s8.62,5.4,8.9,10.3a8.71,8.71,0,0,1,15.15-2.45,10.23,10.23,0,0,1,13.66-5c-.42-2.61-.14-6.44,1.85-8.4.68-.67,7.32-2.89,6.87-1.27,2.08-7.56,13.06-6.76,14.76-.63a4.52,4.52,0,0,1,6.52.75c.88-3.74,6.65-2.5,8.54-.24-2.51-3.95-3.12-8.83,1.44-11.57,3.31-2,7.33-2.25,9.38,1.47-.6-7.13,8.63-8.41,11.22-2.33,5.56-5.26,16,2.44,10.86,9.06,1.73-.11,2.95.81,4.38,1.56a8.37,8.37,0,0,1,3.21,3,19.43,19.43,0,0,1,2,4.92,7.22,7.22,0,0,1,8.77-5c.3-1.1,0-2.19.29-3.31a8.58,8.58,0,0,1,1-2.29,11.06,11.06,0,0,1,3.58-3.59,15,15,0,0,1,9.3-2.21,11.56,11.56,0,0,1,4.44,1.34,9.3,9.3,0,0,1,1.83,1.35c.22.21,1.54,1.46,1.41,1.76,3.08-7.6,17.29-1.89,14.24,5.28,5.37-2,14,4.7,10,11.09,6-.09,8.75,8.67,3.69,12.51,3.72.9,4.92,7.7.59,11.09,2.51,0,6.42,4.85,6.3,7.46,2.15-4.75,11.71-4.36,12,2.39,5.94-2.3,11.87,2.14,9.74,8.54,6.71,1.32,7.74,8.47,5.65,13.69,8.55.79,10.33,13.52,4.43,19.43,8.55,2.66,8.6,15.09,1.87,19.88,4.46,2.13,4.9,12.46-2.36,15.31.19.17.37.35.54.53,4.27,4.56.7,12.07-5.55,12.07H20.3c-6.25,0-9.82-7.51-5.55-12.07.17-.18.35-.36.54-.53C8,309,8.47,298.62,12.93,296.49Z" style="fill:#455a64"></path><path d="M424.23,205.46a6.84,6.84,0,0,0-9.66-.58,6.66,6.66,0,0,0-1.26,1.52,6.84,6.84,0,0,0-11.08,3.93A8.14,8.14,0,0,1,415.77,212a5.78,5.78,0,0,0,0-1.17,6.87,6.87,0,0,0-.93-2.64,8.31,8.31,0,0,1,.71-.75,8.13,8.13,0,0,1,9.42-1A5.59,5.59,0,0,0,424.23,205.46Z" style="fill:#37474f"></path><path d="M353,193.66a5.27,5.27,0,0,1,7.45-.44,5.13,5.13,0,0,1,1,1.17,5.27,5.27,0,0,1,8.55,3,6.37,6.37,0,0,0-4-2.2,6.27,6.27,0,0,0-6.44,3.45,4.64,4.64,0,0,1,0-.91,5.19,5.19,0,0,1,.72-2,6,6,0,0,0-.55-.58,6.27,6.27,0,0,0-7.26-.76A4.11,4.11,0,0,1,353,193.66Z" style="fill:#37474f"></path><path d="M433.79,232c.78-1.07,4.25-.64,5.36-.43a7.5,7.5,0,0,1,5.71,9.79,6.06,6.06,0,0,1,6.71,8.74c4.41-1,11.18-.22,14.63,3.12,1.89,1.83,2.61,5,1.18,7.19.27-.41,3.74-.45,6.6,1.32a6.63,6.63,0,0,1,2.95,5.22,10.86,10.86,0,0,1-2,6.57c.23-.44,2.9,1.42,3.14,1.64a6.8,6.8,0,0,1,1.88,2.94,3.66,3.66,0,0,1-3.2,4.57,9.94,9.94,0,0,1,4.41,3.47,5.51,5.51,0,0,1,.49,5.41c-1.14,2.23-3.86,3.05-6.28,3.65a6.92,6.92,0,0,1,1.72,6.14,4.77,4.77,0,0,1-4.89,3.61,6.59,6.59,0,0,1-3.11,12.15c1.22-.08,2.15,2.48,2.46,3.29.56,1.46,1.33,2.51,2.06,4h6.12c6.25,0,9.82-7.51,5.55-12.07-.17-.18-.35-.36-.54-.53,7.26-2.85,6.82-13.18,2.36-15.31,6.73-4.79,6.68-17.22-1.87-19.88,5.9-5.91,4.12-18.64-4.43-19.43,2.09-5.22,1.06-12.37-5.65-13.69,2.13-6.4-3.8-10.84-9.74-8.54-.26-6.75-9.82-7.14-12-2.39.12-2.61-3.79-7.45-6.3-7.46,4.33-3.39,3.13-10.19-.59-11.09,5.06-3.84,2.35-12.6-3.69-12.51,3.22-5.07-1.57-10.32-6.36-11.28,1.74,1.94,3.32,4.52,2.06,7.19-1.14,2.39-4.21,2.81-6.25,3.81,4.84,1.64,7.07,6.5,3.46,10.76,4.94.62,5.57,7.19,3.6,9.85-1.22-1.06-3.74-1.29-5.57-.94-2.48.47-3.81,1.72-6,4.21C432.12,221.71,436.58,228.2,433.79,232Z" style="fill:#37474f"></path><path d="M75.77,205.46a6.84,6.84,0,0,1,9.66-.58,6.66,6.66,0,0,1,1.26,1.52,6.84,6.84,0,0,1,11.08,3.93A8.14,8.14,0,0,0,84.23,212a5.78,5.78,0,0,1,0-1.17,6.87,6.87,0,0,1,.93-2.64,8.31,8.31,0,0,0-.71-.75,8.13,8.13,0,0,0-9.42-1A5.59,5.59,0,0,1,75.77,205.46Z" style="fill:#37474f"></path><path d="M147,193.66a5.27,5.27,0,0,0-7.45-.44,5.13,5.13,0,0,0-1,1.17,5.27,5.27,0,0,0-8.55,3,6.37,6.37,0,0,1,4-2.2,6.27,6.27,0,0,1,6.44,3.45,4.64,4.64,0,0,0,0-.91,5.19,5.19,0,0,0-.72-2,6,6,0,0,1,.55-.58,6.27,6.27,0,0,1,7.26-.76A3.67,3.67,0,0,0,147,193.66Z" style="fill:#37474f"></path><path d="M12.93,296.49C8.47,298.62,8,309,15.29,311.8c-.19.17-.37.35-.54.53-4.27,4.56-.7,12.07,5.55,12.07h6.12a8.45,8.45,0,0,1,7-5c-2-1.73-5-3.49-6.26-5.93-.43-.86-1.32-6.67.71-6.65a5.88,5.88,0,0,1-5.6-5.36c-.13-2.37,1.21-4.55,2.5-6.55a8.72,8.72,0,0,1-3.17-14.29,2.44,2.44,0,0,0,.64-.83c.3-.84-.48-1.64-1.07-2.3a7.42,7.42,0,0,1,4.47-12.29,7.32,7.32,0,0,1,7.63-10.44c-1.63-2.59-.23-6.31,2.38-7.93s6-1.51,8.92-.66A5.72,5.72,0,0,1,47.08,240a7.72,7.72,0,0,1,7-.46c-.53-4.29,3-7.18,6.81-7.9,1.11-.21,4.58-.64,5.36.43-2.79-3.82,1.67-10.31,6.06-6.92-2.22-2.49-3.56-3.74-6-4.21-1.83-.35-4.35-.12-5.57.94-2-2.66-1.34-9.23,3.6-9.85-3.61-4.26-1.38-9.12,3.46-10.76-2-1-5.11-1.42-6.25-3.81-1.26-2.67.32-5.25,2.06-7.19-4.79,1-9.58,6.21-6.36,11.28-6-.09-8.75,8.67-3.69,12.51-3.72.9-4.92,7.7-.59,11.09-2.51,0-6.42,4.85-6.3,7.46-2.15-4.75-11.71-4.36-12,2.39-5.94-2.3-11.87,2.14-9.74,8.54-6.71,1.32-7.74,8.47-5.65,13.69C10.68,258,8.9,270.7,14.8,276.61,6.25,279.27,6.2,291.7,12.93,296.49Z" style="fill:#37474f"></path></g></g></g><g id="freepik--Floor--inject-5"><g id="freepik--floor--inject-5"><path id="freepik--floor--inject-5" d="M77.66,240.71c-95.18,55-95.17,144,0,199s249.49,54.95,344.67,0,95.17-144,0-199S172.84,185.75,77.66,240.71Z" style="fill:#e0e0e0"></path><path d="M76.84,357.87l23.44,13.54,7-4L83.81,353.85ZM37.17,335,60.61,348.5l7-4L44.14,331Zm79.34,45.81,23.43,13.53,7-4-23.44-13.53Zm-107.39-62,11.82,6.82,7-4L11.23,312C10.43,314.22,9.73,316.49,9.12,318.78Zm147,84.9,23.44,13.53,7-4-23.44-13.54Zm79.34,45.8L259,463l7-4-23.44-13.53Zm46.64,18.88-7,4,11.93,6.89q5.94-.52,11.82-1.21Zm-86.31-41.78,23.44,13.53,7-4-23.44-13.53Z" style="fill:#fafafa"></path></g></g><g id="freepik--Clouds--inject-5"><path id="freepik--Cloud--inject-5" d="M474.59,74a7.33,7.33,0,0,0-2.41-.45c-.78-.06-1-.21-1.17-.38a5.75,5.75,0,0,0-6.91-2,4.42,4.42,0,0,0-5.21-3c.09-2.42-3-5-5.8-5.62s-5-.33-6.52,1.42c-1.63-3.18-8-4.08-11.48-2.4-2,1-3.68,2-4.51,3.79a7.67,7.67,0,0,0-.75,3.63,6.4,6.4,0,0,0-5.85-.82c-1.94.75-2.09,2.22-2.18,3.71a6.91,6.91,0,0,0-3.54-.07c-1.22.37-1.93,1.33-1.76,2.1-1,0-3.27.73-3,1.75s2.93,1,3.92,1a17.61,17.61,0,0,0,2.75-.44,4.12,4.12,0,0,0,1.43.28c1.68,0,2.39-.73,2.66-1.36.82,1.73,3.73,3,5.79,3.57,3.88,1,9.36.38,11.75-2.51a4.26,4.26,0,0,0,1.16,1.4,6.69,6.69,0,0,0,3.58,1.46c1.59.14,5.87.35,7.07-2.18.85,1.68,4.66,2.45,7.55,2a12.06,12.06,0,0,0,3.24-1,19.48,19.48,0,0,0,1.86-1.12,1.56,1.56,0,0,1,1.59-.11,9.45,9.45,0,0,0,6.32,0C475.77,76.08,476.11,74.72,474.59,74Z" style="fill:#f5f5f5"></path><path id="freepik--cloud--inject-5" d="M273.53,46a5.77,5.77,0,0,0-1.95-.37c-.64-.05-.84-.17-1-.31A4.68,4.68,0,0,0,265,43.62a3.59,3.59,0,0,0-4.23-2.39c.07-2-2.45-4.09-4.71-4.57s-4.06-.26-5.29,1.16c-1.33-2.59-6.52-3.31-9.33-2-1.62.79-3,1.6-3.66,3.08a6.23,6.23,0,0,0-.61,2.94,5.21,5.21,0,0,0-4.75-.66c-1.58.61-1.7,1.8-1.77,3a5.49,5.49,0,0,0-2.88-.05c-1,.29-1.56,1.07-1.43,1.7-.78,0-2.65.6-2.44,1.43s2.38.83,3.18.8a14.39,14.39,0,0,0,2.24-.35,3.19,3.19,0,0,0,1.16.22c1.36,0,1.94-.59,2.16-1.1.66,1.4,3,2.47,4.7,2.9,3.15.8,7.6.31,9.54-2a3.63,3.63,0,0,0,.94,1.14,5.38,5.38,0,0,0,2.91,1.18c1.3.12,4.77.29,5.75-1.77.69,1.37,3.78,2,6.13,1.66a9.68,9.68,0,0,0,2.63-.8,16.72,16.72,0,0,0,1.51-.9,1.25,1.25,0,0,1,1.29-.09,7.66,7.66,0,0,0,5.13,0C274.49,47.61,274.77,46.51,273.53,46Z" style="fill:#f5f5f5"></path><path id="freepik--cloud--inject-5" d="M330.52,60.5a7.24,7.24,0,0,0-2.4-.44c-.78-.06-1-.22-1.17-.38a5.72,5.72,0,0,0-6.87-2,4.39,4.39,0,0,0-5.18-2.93c.09-2.41-3-5-5.76-5.6s-5-.32-6.49,1.42c-1.62-3.17-8-4.06-11.42-2.38-2,1-3.66,2-4.48,3.76a7.61,7.61,0,0,0-.74,3.61,6.37,6.37,0,0,0-5.82-.81c-1.93.75-2.08,2.2-2.17,3.68a6.78,6.78,0,0,0-3.52-.06c-1.22.36-1.92,1.31-1.75,2.09-1-.06-3.26.72-3,1.74s2.91,1,3.89,1a18.69,18.69,0,0,0,2.74-.43,4.37,4.37,0,0,0,1.42.27c1.67,0,2.38-.73,2.64-1.35.82,1.71,3.71,3,5.76,3.54,3.86,1,9.31.39,11.69-2.49a4.23,4.23,0,0,0,1.15,1.4,6.64,6.64,0,0,0,3.56,1.44c1.59.15,5.84.35,7-2.16.85,1.67,4.63,2.43,7.51,2a11.57,11.57,0,0,0,3.22-1,18.1,18.1,0,0,0,1.85-1.11,1.54,1.54,0,0,1,1.58-.11,9.4,9.4,0,0,0,6.28,0C331.69,62.53,332,61.19,330.52,60.5Z" style="fill:#f5f5f5"></path><path id="freepik--cloud--inject-5" d="M109.07,48.59a8,8,0,0,0-2.72-.5c-.88-.07-1.16-.25-1.33-.44a6.51,6.51,0,0,0-7.81-2.31A5,5,0,0,0,91.32,42c.1-2.75-3.4-5.7-6.55-6.37s-5.65-.37-7.38,1.62c-1.84-3.6-9.07-4.62-13-2.71-2.25,1.09-4.16,2.22-5.09,4.28a8.51,8.51,0,0,0-.85,4.1A7.19,7.19,0,0,0,51.86,42c-2.2.84-2.36,2.5-2.47,4.18a7.69,7.69,0,0,0-4-.07c-1.38.41-2.18,1.5-2,2.37-1.09-.06-3.7.83-3.4,2,.33,1.3,3.31,1.17,4.42,1.13a21.39,21.39,0,0,0,3.12-.49,4.86,4.86,0,0,0,1.62.31c1.89,0,2.69-.83,3-1.54.92,2,4.22,3.44,6.54,4C63.09,55,69.29,54.36,72,51.09a5,5,0,0,0,1.3,1.59,7.57,7.57,0,0,0,4.06,1.64c1.8.17,6.63.4,8-2.46,1,1.9,5.26,2.77,8.54,2.3a13.62,13.62,0,0,0,3.66-1.1,21.25,21.25,0,0,0,2.1-1.27,1.78,1.78,0,0,1,1.8-.12,10.67,10.67,0,0,0,7.14,0C110.4,50.9,110.79,49.37,109.07,48.59Z" style="fill:#f5f5f5"></path></g><g id="freepik--Shadow--inject-5"><path id="freepik--shadow--inject-5" d="M178.62,219,66.77,283.73c-15.79,9.13-15.78,23.92,0,33L277.36,438c79,45.73,232.52-62.33,169.23-97.66L235.81,219C220,209.86,194.41,209.87,178.62,219Z" style="opacity:0.15"></path></g><g id="freepik--Car--inject-5"><g id="freepik--suv-car--inject-5"><polygon points="244.04 386.71 244.04 348.97 288.89 348.97 288.89 360.85 244.04 386.71" style="fill:#263238"></polygon><polygon points="74.9 288.5 74.9 250.76 119.75 250.76 119.75 262.65 74.9 288.5" style="fill:#263238"></polygon><path d="M93.27,273.91,87.7,262.83,101,255.15h0c4.22-2.42,9.84-2.15,16,1.42,13.11,7.56,23.73,27.08,23.73,43.59,0,8.65-2.91,14.75-7.57,17.52h0l-.18.11,0,0-13.61,7.85L113.44,314C102.31,305.45,93.7,288.64,93.27,273.91Z" style="fill:#37474f"></path><path d="M93.27,273.91,87.7,262.83,101,255.15h0c4.22-2.42,9.84-2.15,16,1.42,13.11,7.56,23.73,27.08,23.73,43.59,0,8.65-2.91,14.75-7.57,17.52h0l-.18.11,0,0-13.61,7.85L113.44,314C102.31,305.45,93.7,288.64,93.27,273.91Z" style="fill:#263238"></path><path d="M79.44,280.73c0,14.23,7.9,30.71,18.48,39.82l0,.05a35.06,35.06,0,0,0,5.2,3.72c13.11,7.58,23.74.32,23.73-16.19,0-12.47-6.06-26.67-14.68-36.12l-.07-.08a37.92,37.92,0,0,0-9-7.39C90.06,257,79.44,264.22,79.44,280.73Z" style="fill:#37474f"></path><path d="M79.44,280.73c0,14.23,7.9,30.71,18.48,39.82a67.43,67.43,0,0,1-15-29.13c-2-9.51-1.25-23.18,6.92-26.63s18.95,3.83,22.36,7.14a37.92,37.92,0,0,0-9-7.39C90.06,257,79.44,264.22,79.44,280.73Z" style="fill:#455a64"></path><path d="M103.17,274.3c-8.34-4.82-15.1.29-15.1,11.41s6.76,24.05,15.1,28.86,15.11-.29,15.11-11.42S111.51,279.11,103.17,274.3Zm0,36.8c-6.9-4-12.49-14.68-12.49-23.88s5.59-13.43,12.49-9.45,12.5,14.68,12.5,23.88S110.07,315.08,103.17,311.1Z" style="fill:#f5f5f5"></path><path d="M115.67,301.65a13.79,13.79,0,0,1-2.2,8.17c-2.25,3.06-6,3.74-10.29,1.28-6.91-4-12.51-14.67-12.51-23.87,0-6.44,2.74-10.44,6.74-10.9a9.36,9.36,0,0,1,5.77,1.44C110.08,281.76,115.67,292.45,115.67,301.65Z" style="fill:#e0e0e0"></path><path d="M115.67,301.65a13.79,13.79,0,0,1-2.2,8.17c-2.25,3.06-6,3.74-10.29,1.28-6.91-4-12.51-14.67-12.51-23.87,0-6.44,2.74-10.44,6.74-10.9a9.36,9.36,0,0,1,5.77,1.44C110.08,281.76,115.67,292.45,115.67,301.65Z" style="opacity:0.4"></path><path d="M115.67,301.65a13.79,13.79,0,0,1-2.2,8.17,9.43,9.43,0,0,1-5.79-1.45c-6.9-4-12.49-14.67-12.49-23.86,0-3.52.82-6.31,2.22-8.18a9.36,9.36,0,0,1,5.77,1.44C110.08,281.76,115.67,292.45,115.67,301.65Z" style="fill:#263238"></path><path d="M101.48,288.68l-2.26,6.56-5.36-11.76a10.1,10.1,0,0,1,1.14-4Z" style="fill:#e0e0e0"></path><path d="M99.25,293.85l4,5.71-4,4.58A7.86,7.86,0,0,1,97,301Z" style="fill:#e0e0e0"></path><path d="M107.78,298.49l-1.13.48-.29-1.31-4.44,1.24,9.12,13a6.77,6.77,0,0,0,2.43-2.06c.14-.2.27-.4.4-.61Z" style="fill:#e0e0e0"></path><path d="M115.19,296.83l-7.41,1.66h0l-.68-1.11-.74.28-1.21-5.7.9.52L106,291l7.49,0A31.16,31.16,0,0,1,115.19,296.83Z" style="fill:#e0e0e0"></path><path d="M106,291l-1.12-.36.28,1.32-4.86-2.81,4.28-10.48a21.58,21.58,0,0,1,3.62,3.39Z" style="fill:#e0e0e0"></path><path d="M107.9,297.16c0,3.48-2.12,5.08-4.73,3.58s-4.73-5.55-4.73-9,2.12-5.09,4.73-3.58S107.9,293.68,107.9,297.16Z" style="fill:#f5f5f5"></path><path d="M262.37,371.49l-5.58-11.08,13.27-7.68h0c4.22-2.43,9.84-2.15,16,1.41,13.11,7.57,23.74,27.09,23.74,43.6,0,8.65-2.92,14.74-7.58,17.51h0l-.19.11h0l-13.6,7.86-5.89-11.69C271.4,403,262.8,386.22,262.37,371.49Z" style="fill:#37474f"></path><path d="M262.37,371.49l-5.58-11.08,13.27-7.68h0c4.22-2.43,9.84-2.15,16,1.41,13.11,7.57,23.74,27.09,23.74,43.6,0,8.65-2.92,14.74-7.58,17.51h0l-.19.11h0l-13.6,7.86-5.89-11.69C271.4,403,262.8,386.22,262.37,371.49Z" style="fill:#263238"></path><path d="M248.53,378.3c0,14.24,7.91,30.71,18.49,39.83,0,0,0,0,0,0a34.94,34.94,0,0,0,5.2,3.73c13.11,7.58,23.75.32,23.74-16.19,0-12.47-6.07-26.67-14.68-36.13a.27.27,0,0,1-.08-.07,38.22,38.22,0,0,0-9-7.4C259.16,354.55,248.53,361.79,248.53,378.3Z" style="fill:#37474f"></path><path d="M248.53,378.3c0,14.24,7.91,30.71,18.49,39.83A67.34,67.34,0,0,1,252,389c-2-9.52-1.25-23.18,6.92-26.63s18.95,3.82,22.36,7.14a38.22,38.22,0,0,0-9-7.4C259.16,354.55,248.53,361.79,248.53,378.3Z" style="fill:#455a64"></path><path d="M272.27,371.87c-8.35-4.81-15.11.3-15.11,11.42s6.76,24,15.11,28.86,15.1-.3,15.1-11.42S280.61,376.69,272.27,371.87Zm0,36.8c-6.91-4-12.5-14.67-12.5-23.87s5.59-13.43,12.5-9.45,12.49,14.67,12.49,23.87S279.17,412.66,272.27,408.67Z" style="fill:#f5f5f5"></path><path d="M284.76,399.23a13.7,13.7,0,0,1-2.2,8.16c-2.25,3.06-6,3.74-10.29,1.28-6.91-4-12.5-14.67-12.5-23.87,0-6.43,2.73-10.43,6.73-10.9a9.5,9.5,0,0,1,5.77,1.44C279.17,379.33,284.76,390,284.76,399.23Z" style="fill:#e0e0e0"></path><path d="M284.76,399.23a13.7,13.7,0,0,1-2.2,8.16c-2.25,3.06-6,3.74-10.29,1.28-6.91-4-12.5-14.67-12.5-23.87,0-6.43,2.73-10.43,6.73-10.9a9.5,9.5,0,0,1,5.77,1.44C279.17,379.33,284.76,390,284.76,399.23Z" style="opacity:0.4"></path><path d="M284.76,399.23a13.7,13.7,0,0,1-2.2,8.16,9.32,9.32,0,0,1-5.78-1.44c-6.9-4-12.5-14.67-12.5-23.87a13.66,13.66,0,0,1,2.22-8.18,9.5,9.5,0,0,1,5.77,1.44C279.17,379.33,284.76,390,284.76,399.23Z" style="fill:#263238"></path><path d="M270.57,386.26l-2.25,6.55L263,381.06a10.27,10.27,0,0,1,1.14-4Z" style="fill:#e0e0e0"></path><path d="M268.34,391.43l4,5.7-4,4.58a7.71,7.71,0,0,1-2.26-3.09Z" style="fill:#e0e0e0"></path><path d="M276.88,396.07l-1.14.48-.28-1.31L271,396.47l9.12,13a6.91,6.91,0,0,0,2.43-2.07c.14-.19.27-.4.4-.61Z" style="fill:#e0e0e0"></path><path d="M284.29,394.41l-7.41,1.66h0l-.69-1.12-.73.29-1.22-5.7.9.52-.06-1.48,7.49-.05A32.29,32.29,0,0,1,284.29,394.41Z" style="fill:#e0e0e0"></path><path d="M275.08,388.58l-1.12-.36.28,1.32-4.85-2.82,4.27-10.48a22,22,0,0,1,3.62,3.39Z" style="fill:#e0e0e0"></path><path d="M277,394.74c0,3.48-2.11,5.08-4.73,3.57s-4.72-5.55-4.72-9,2.11-5.08,4.72-3.57S277,391.26,277,394.74Z" style="fill:#f5f5f5"></path><path d="M412.46,385.76c-39.54,22.84-51.26,28.72-74.81,30.36-22.27,1.56-29.57-3.47-29.57-3.47L299,407.38c0-.55,0-1.11,0-1.67,0-9-3-19.06-8-27.83V371.7s-1.77-15.43,14-23l2-.78,133.65-52.34c5.79,14.27,6.23,27.25,6.77,39.89C447.83,345.86,450.69,363.69,412.46,385.76Z" style="fill:#3673FD"></path><path d="M93.54,182.65,81,198.54s5.62,3.3,12.56-.75a23.2,23.2,0,0,0,9.34-9.59Z" style="fill:#37474f"></path><path d="M307,348s-6.88,2.66-10.06,7.5c-5,7.54-5,10.68-6,16.17v6.18a58.76,58.76,0,0,0-7.5-10.37l-.06-.07a41,41,0,0,0-9.66-7.93,22.89,22.89,0,0,0-11.37-3.39c-9.79,0-16.27,7.95-16.82,20.43L139.49,315.3s-3.91-2.24-9.62-5.54c0-.53,0-1.08,0-1.63,0-12.86-6.1-27.89-15.54-38.25h0a41.28,41.28,0,0,0-9.69-8,22.84,22.84,0,0,0-11.38-3.4c-9.28,0-15.58,7.17-16.68,18.55C75,275.43,72.75,276,71,273.6c-3.44-4.67-4.24-16.13-4.95-24.47-1.14-13.29,1.51-27.5,5.23-37.78,3.59-9.95,5.81-11.13,9.36-12.66,3-1.28,7.93-.31,10.07-1.39,3-1.52,12.21-9.1,12.21-9.1s5.67,1.08,10.77,2.59l8.43,43.85,127,73.3s21.1,12.92,30.9,19.57A323.34,323.34,0,0,1,307,348Z" style="fill:#3673FD"></path><path d="M307,348s-6.88,2.66-10.06,7.5c-5,7.54-5,10.68-6,16.17v6.18a58.76,58.76,0,0,0-7.5-10.37l-.06-.07a41,41,0,0,0-9.66-7.93,22.89,22.89,0,0,0-11.37-3.39c-9.79,0-16.27,7.95-16.82,20.43L139.49,315.3s-3.91-2.24-9.62-5.54c0-.53,0-1.08,0-1.63,0-12.86-6.1-27.89-15.54-38.25h0a41.28,41.28,0,0,0-9.69-8,22.84,22.84,0,0,0-11.38-3.4c-9.28,0-15.58,7.17-16.68,18.55C75,275.43,72.75,276,71,273.6c-3.44-4.67-4.24-16.13-4.95-24.47-1.14-13.29,1.51-27.5,5.23-37.78,3.59-9.95,5.81-11.13,9.36-12.66,3-1.28,7.93-.31,10.07-1.39,3-1.52,12.21-9.1,12.21-9.1s5.67,1.08,10.77,2.59l8.43,43.85,127,73.3s21.1,12.92,30.9,19.57A323.34,323.34,0,0,1,307,348Z" style="opacity:0.15"></path><path d="M272.26,345c-14.58-5.24-19.81.82-23.08,1.16s1.13-7-1.92-18.57-5.08-11.57-22.36-21.4-33.62-19.71-68.35-39.66c-18.24-10.48-32.06-16.91-43.4-24.64-14.46-9.84-23.69-19.36-28.81-19-9.15.65-13.55,2-15.24,12.49,2.56-25.11,6.5-31.23,11.88-33.22s10-1.26,14.43-5.14c2.19-1.93,9.17-7.57,9.17-7.57s6.15,1.61,7.4,1.83a90.79,90.79,0,0,0-11.44,17.85c-1,2.27-.42,4.71,3.87,10.18s13.25,15.3,16.06,17.57c5.63,4.56,42.37,24.31,56.61,33.33s64.91,39,78.07,47.37,33.28,21.13,42.25,30.3a57.57,57.57,0,0,0-5.56,11.29C287.11,354,278.89,347.33,272.26,345Z" style="fill:#3673FD"></path><path d="M183.85,280.88a.61.61,0,0,0,.74-.15l.63-1.22c.48-.92-.92-2.7-3.13-4l-3.25-1.88c-2.2-1.27-4.38-1.56-4.85-.64l-.52,1a.8.8,0,0,0,.41,1.11Z" style="fill:#37474f"></path><path d="M128.75,250.07a.61.61,0,0,0,.74-.16l.63-1.22c.48-.92-.92-2.69-3.13-4l-3.25-1.87c-2.21-1.28-4.38-1.56-4.86-.64l-.51,1a.8.8,0,0,0,.41,1.11Z" style="fill:#37474f"></path><path d="M357.44,216.57h0l.91,3.8c2.09,3.93,6.73,8.89,8.4,8.48,1.48-.37,2.39-2.53,2.86-5.21v0a28.17,28.17,0,0,0,.39-3.87c.14-4.21-1.73-14-7.57-16.63a3,3,0,0,0-3.46.78,6.84,6.84,0,0,0-1.69,2.79C356.3,209.63,357.3,216.42,357.44,216.57Z" style="fill:#3673FD"></path><path d="M357.44,216.57h0c.3,1.57.91,3.8.91,3.8,2.09,3.93,6.73,8.89,8.4,8.48,1.48-.37,2.39-2.53,2.86-5.21v0a28.17,28.17,0,0,0,.39-3.87c.14-4.21-1.73-14-7.57-16.63a3,3,0,0,0-3.46.78,6.84,6.84,0,0,0-1.69,2.79C356.3,209.63,357.3,216.42,357.44,216.57Z" style="fill:#fff;opacity:0.30000000000000004"></path><path d="M358.35,220.37c2.09,3.93,6.73,8.89,8.4,8.48,1.48-.37,2.39-2.53,2.86-5.21v0a28.17,28.17,0,0,0,.39-3.87c.14-4.21-1.73-14-7.57-16.63a3,3,0,0,0-3.46.78l.8,1.81c4.08,1.74,5.18,8,4.8,12.84S360.69,222.85,358.35,220.37Z" style="fill:#3673FD"></path><path d="M357.29,206.68c1.48-1.57,5.14-1.64,8.22,2.6s4.1,11.51,4.11,14.33a28.16,28.16,0,0,0,.39-3.88c.14-4.2-1.73-14-7.57-16.62C360,202,358,204.52,357.29,206.68Z" style="fill:#37474f"></path><path d="M249,307.94c.55-3.78-.65-8.94-2-12.4-4.58-11.33-15.57-36.24-20.14-45.17a27.15,27.15,0,0,0-6.38-8.54,29.18,29.18,0,0,0-3.67-3c-5.51-4.11-28.61-17.65-38.26-21.51-16.56-6.64-43.05-19.39-64.9-26.5a159.79,159.79,0,0,0-9.73,17.68,6.73,6.73,0,0,0,.93,7L116.69,230a19.5,19.5,0,0,0,5.39,4.6Z" style="fill:#263238"></path><path d="M237.66,287.34a17.66,17.66,0,0,0-1.46-7c-4.75-10.88-10.12-22.7-12.9-28.13a22,22,0,0,0-4.93-6.81l-.74-.74a25.25,25.25,0,0,0-3.08-2.54l-.14-.1c-5.47-4.09-28.27-17.52-37.3-21-2.28-.88-4.58-2-7.25-3.18-9.06-4.22-36-16.12-54.4-22.45a160.72,160.72,0,0,0-7.9,14.74,2.72,2.72,0,0,0,.4,2.81l11.83,14.58a15.51,15.51,0,0,0,4.29,3.65l110,63.42a2.41,2.41,0,0,0,3.61-2.09Z" style="fill:#37474f"></path><path d="M176.44,223.08c5.08,2.37,10.1,4.9,14.93,7.74,1.31.76,13.31,7.78,7.65,8.55a5.8,5.8,0,0,1-2.55-.44c-12-4-23.71-8.93-35.79-12.78-10.73-3.43-24.51-8.59-35.39-3.87a7.77,7.77,0,0,1-3.83,1c-1.75-.2-3-1.68-4.13-3.05-2.09-2.61-5-5-5.16-8.53a16.59,16.59,0,0,1,2.54-8.69c2.23-3.86,6.86-2.8,10.29-1.64,9.45,3.2,18.5,7.32,27.64,11.32C160.5,216.12,168.57,219.42,176.44,223.08Z" style="fill:#455a64"></path><g id="freepik--Window--inject-5"><path d="M130.73,198.89s-8.3,24.38-10.08,32.74l3.26,1.88c1.76-8,10.25-33.93,10.25-33.93Z" style="fill:#263238"></path><path d="M182,221.63c-2.71,6.3-7.87,35.08-8.74,41.32l3.26,1.88c.8-6.89,5.95-36,8.91-42.51Z" style="fill:#263238"></path></g><path d="M363.1,242.06c.55-3.78-.64-8.93-2-12.39-4.58-11.34-23.82-31.52-28.39-40.45a27.35,27.35,0,0,0-6.38-8.53,30.12,30.12,0,0,0-3.68-3c-5.5-4.11-24.47-16.77-35-23.39-24.83-15.62-38.6-23-60.46-30.14-5.09-1.51-10.77-2.6-10.77-2.6-3.11,0-11-5.78-10.06-6.92s12.42-1.79,30.12,5.25a373.51,373.51,0,0,1,57.75,28.82c27.8,16.82,32.17,22.71,44.33,38.94s23.22,32.3,29,41.26a118.34,118.34,0,0,0,8.5,11.75A15.25,15.25,0,0,1,363.1,242.06Z" style="fill:#3673FD"></path><path d="M319.71,356.65c8.38,6.72,12.19,8.27,24.94,7.13,9.14-.83,35.24-4.3,66.66-26.39,33.85-23.81,29.91-38,29.47-41s-3.66-7.59-3.66-7.59Z" style="fill:#3673FD"></path><path d="M319.71,356.65c8.38,6.72,12.19,8.27,24.94,7.13,9.14-.83,35.24-4.3,66.66-26.39,33.85-23.81,29.91-38,29.47-41s-3.66-7.59-3.66-7.59Z" style="fill:#fff;opacity:0.2"></path><path d="M249,307.94s19.8,12.71,30.78,19.9c13.6,8.91,19.78,14.51,27.22,20.19s14.31,11.94,26.44,10.68c27.53-2.86,53.54-12.83,73.61-26.44,17.78-12.06,35.92-34.37,29.23-44.66s-18.9-20.22-60.27-47l-6.32,2.31Z" style="fill:#3673FD"></path><path d="M249,307.94s19.8,12.71,30.78,19.9c13.6,8.91,19.78,14.51,27.22,20.19s14.31,11.94,26.44,10.68c27.53-2.86,53.54-12.83,73.61-26.44,17.78-12.06,35.92-34.37,29.23-44.66s-18.9-20.22-60.27-47l-6.32,2.31Z" style="fill:#fff;opacity:0.4"></path><path d="M370.44,248c20.39,20.43,33.66,42.56,50.17,66.89C403.06,273.89,370.44,248,370.44,248Zm-97.33,60.4A909.69,909.69,0,0,1,373.41,343S330.64,315.93,273.11,308.39Z" style="fill:#3673FD;opacity:0.5"></path><path d="M430.64,285.31c-13.89-15.74-54.55-42.87-56.83-42.38-3.88.85,16.27,18.08,26.94,32.17,15,19.87,17.17,24.65,21.07,32.42,3.16,6.3,7.67-.6,10.44-5.51A14.84,14.84,0,0,0,430.64,285.31Zm-66.22,58.83c-16.4-8.47-56.89-21.29-78.65-28.05S255.48,309.91,265,314c8.45,3.63,48.92,32.95,55.5,37.27,5.25,3.46,13.16,5,25.15,2.32C359.23,350.54,371.54,347.82,364.42,344.14Z" style="fill:#fff;opacity:0.2"></path><path d="M369.73,242.93c-10.21,25-99,68.07-107.75,63.56h0a41.12,41.12,0,0,1-9-12.05c-4.11-8-11.44-27.52-20.23-45.67a44.72,44.72,0,0,0-6-9.51c6.4,2.57,12.62,1.61,21.45-1.18,16.4-5.16,55.59-26.31,70.1-38.79,11.12-9.56,12.2-13.86,7.15-22.41,4.05,2.34,5.3,3.88,10.6,10.48,5.58,6.94,15.13,21.75,25.62,36.1C369.49,234.23,370.62,236.67,369.73,242.93Z" style="fill:#37474f"></path><path d="M263.89,302.82a39.67,39.67,0,0,1-7.39-10.22c-1.77-3.44-4.27-9.36-7.17-16.22-3.62-8.58-8.12-19.24-13-29.36-.38-.79-.76-1.54-1.16-2.28,3.87-.08,8.17-1,14.21-2.86,16.6-5.22,56.39-26.57,71.5-39.57,5.83-5,9.68-9.2,10.94-13.81l1.08,1.36c2.91,3.62,7,9.59,11.81,16.5,4.13,6,8.82,12.78,13.7,19.45,7.59,10.4,8,11.91,7.45,16-4.2,9.38-22.38,23.7-48.86,38.45C292.1,294.16,270.1,302.76,263.89,302.82Z" style="fill:#455a64"></path><path d="M363.35,246c-8-13.36-22.06-35-36.38-49.45a70.06,70.06,0,0,1-6.11,5.81A153.39,153.39,0,0,1,302.93,215c7.09,10.43,22.56,35.12,33.25,53.79C349.16,260.24,358.62,252.32,363.35,246Z" style="fill:#fff;opacity:0.2"></path><path d="M324.28,276.12c2.5-1.47,4.9-2.92,7.21-4.37-13.61-24.77-26.75-44.76-33.13-54-2.14,1.28-4.33,2.56-6.55,3.83C304.33,241.32,316.91,263,324.28,276.12Z" style="fill:#fff;opacity:0.2"></path><path d="M221.24,236.26c8.61,6,15.62,5.37,26.92,1.81,16.39-5.16,55.58-26.31,70.09-38.79,11.13-9.56,12.2-13.86,7.15-22.41-13.65-13.31-37.95-27.13-58.8-38.38s-39.79-20.69-60.28-23.89c-14.34-1-36.78,6.55-56.15,16.72-42.84,22.5-64,44.14-57.91,49.16,3.35,2.74,18,5.55,41.9,14.82S202.52,225.45,221.24,236.26Z" style="fill:#3673FD"></path><path d="M221.24,236.26c8.61,6,15.62,5.37,26.92,1.81,16.39-5.16,55.58-26.31,70.09-38.79,11.13-9.56,12.2-13.86,7.15-22.41-13.65-13.31-37.95-27.13-58.8-38.38s-39.79-20.69-60.28-23.89c-14.34-1-36.78,6.55-56.15,16.72-42.84,22.5-64,44.14-57.91,49.16,3.35,2.74,18,5.55,41.9,14.82S202.52,225.45,221.24,236.26Z" style="fill:#fff;opacity:0.4"></path><path d="M113.66,162.83a1,1,0,0,0-.37,2c35.44,6.57,108.31,40.57,129.33,63.61a1,1,0,0,0,.74.33,1,1,0,0,0,.74-1.68C222.86,203.79,149.37,169.45,113.66,162.83ZM149,142.45a1,1,0,1,0-.37,2C184.09,151,257,185,278,208a1,1,0,0,0,.74.33,1.05,1.05,0,0,0,.68-.26,1,1,0,0,0,.06-1.41C258.22,183.4,184.73,149.07,149,142.45Zm-17.69,10.19a1,1,0,0,0-1.16.8,1,1,0,0,0,.8,1.17c35.44,6.56,108.31,40.57,129.33,63.61a1,1,0,0,0,.74.32,1,1,0,0,0,.74-1.67C240.54,193.59,167.05,159.26,131.33,152.64Zm35.37-20.39a1,1,0,0,0-.37,2c35.44,6.57,108.31,40.58,129.34,63.61a1,1,0,0,0,.73.33,1,1,0,0,0,.68-.26,1,1,0,0,0,.06-1.42C275.9,173.21,202.41,138.87,166.7,132.25Zm148.12,54c-21.24-23.27-94.73-57.61-130.44-64.23a1,1,0,1,0-.37,2c35.44,6.57,108.32,40.57,129.33,63.61a1,1,0,0,0,1.48-1.35Z" style="fill:#3673FD;opacity:0.30000000000000004"></path><path d="M249,307.94c.55-3.78-.65-8.94-2-12.4-4.58-11.33-15.57-36.24-20.14-45.17a27.15,27.15,0,0,0-6.38-8.54,29.18,29.18,0,0,0-3.67-3c-5.51-4.11-28.61-17.65-38.26-21.51-16.56-6.64-43.05-19.39-64.9-26.5-5.1-1.51-10.77-2.59-10.77-2.59-3.12,0-11.58-6.58-10.62-7.72s11.37-.35,29.09,6.63c24.87,9.8,48.59,18.81,64.08,26.95,28.77,15.11,39.1,17.82,47.28,34.7,8.8,18.15,16.12,37.69,20.23,45.67a41,41,0,0,0,9,12.06A15.24,15.24,0,0,1,249,307.94Z" style="fill:#3673FD"></path><path d="M249,307.94c.55-3.78-.65-8.94-2-12.4-4.58-11.33-15.57-36.24-20.14-45.17a27.15,27.15,0,0,0-6.38-8.54,29.18,29.18,0,0,0-3.67-3c-5.51-4.11-28.61-17.65-38.26-21.51-16.56-6.64-43.05-19.39-64.9-26.5-5.1-1.51-10.77-2.59-10.77-2.59-3.12,0-11.58-6.58-10.62-7.72s11.37-.35,29.09,6.63c24.87,9.8,48.59,18.81,64.08,26.95,28.77,15.11,39.1,17.82,47.28,34.7,8.8,18.15,16.12,37.69,20.23,45.67a41,41,0,0,0,9,12.06A15.24,15.24,0,0,1,249,307.94Z" style="opacity:0.30000000000000004"></path><path d="M211.15,223.61c4.37,2.42,8.52,5.44,13.4,6.54,1.67.38,5.27.47,5.22-1.24a3,3,0,0,0-1.4-2c-7.58-6-17.54-10.87-26.25-15.12-27-13.19-54.22-26.44-83-35.19-3.82-1.16-9.89-2.89-13.88-1.78-2.31.65-3.3,2.35.34,3.38,9,2.55,16.57,4.47,25.38,7.78,18.71,7,33.37,13.87,52.45,22.92C192.87,213.35,201.08,218,211.15,223.61Z" style="fill:#3673FD;opacity:0.5"></path><path d="M109.74,177.82a7.22,7.22,0,0,0,3.52-.81c5.65-2.81,12-1.25,24.79,4,13.94,5.68,40.34,16.12,57.79,25.15s16.95,10.48,17,12.42a8.58,8.58,0,0,1-.73,3.53,74.64,74.64,0,0,0,9.68,5.93c4,1.84,11.5,3.32,7.66-3.14S215.89,211.14,200.58,203s-47.52-21.76-60.5-26.62-21.66-7.67-32.75-3C98.85,176.94,105.92,177.67,109.74,177.82Z" style="fill:#455a64"></path><path d="M221.77,228c3.62,1.66,10,3,8.48-1.45a1.71,1.71,0,0,1-.84.73c-1.4.53-2.94-.23-4.25-1-3.14-1.77-6.47-3.75-8-7-.5-1.09-.78-2.28-1.38-3.31a11.8,11.8,0,0,0-4.54-3.84c-13.81-8-27.35-14.15-42-20.42-10.15-4.34-21.47-8.8-31.62-13.14-7.18-3.07-14.93-6.2-22.56-4.56-1.91.41-4,1.1-5.72.16a5.11,5.11,0,0,1,.83-1.86c-.93.29-1.88.63-2.84,1-8.48,3.56-1.41,4.29,2.41,4.44a7.22,7.22,0,0,0,3.52-.81c5.65-2.81,12-1.25,24.79,4,13.94,5.68,40.34,16.12,57.79,25.15s16.95,10.48,17,12.42a8.58,8.58,0,0,1-.73,3.53A74.64,74.64,0,0,0,221.77,228Z" style="fill:#37474f"></path><path d="M302,170.29c4.25,2.63,8.25,5.86,13.07,7.2,1.65.46,5.24.73,5.28-1a3,3,0,0,0-1.31-2.11c-7.27-6.41-17-11.72-25.46-16.4-26.35-14.51-52.84-29.09-81.16-39.25-3.76-1.35-9.73-3.38-13.77-2.47-2.34.53-4.17,2.79-.58,4,8.9,3,16.4,5.09,25,8.84,18.34,7.94,34,15.45,52.6,25.43C285,159.5,292.26,164.23,302,170.29Z" style="fill:#3673FD;opacity:0.5"></path><path d="M202.86,119.71a7.21,7.21,0,0,0,3.57-.64c5.78-2.52,12-.64,24.55,5.22,13.64,6.38,39.48,18.12,56.46,28s16.4,11.32,16.34,13.26a8.63,8.63,0,0,1-.92,3.48,74.42,74.42,0,0,0,9.37,6.41c3.93,2,11.32,3.9,7.82-2.75s-12.84-14.4-27.72-23.28S246,125.3,233.24,119.8s-21.24-8.75-32.56-4.65C192,118.28,199.06,119.37,202.86,119.71Z" style="fill:#455a64"></path><path d="M319.12,175.4a3.84,3.84,0,0,1-2.23-.61,22.82,22.82,0,0,1-7-4.9,10,10,0,0,1-2-3.54,17.75,17.75,0,0,0-1.33-4,9.59,9.59,0,0,0-2.67-2.68,113,113,0,0,0-11.05-6.85q-5.82-3.35-11.69-6.6c-8.8-4.89-17.69-9.62-26.7-14.11s-18.1-8.72-27.36-12.62c-5.55-2.33-11.51-4.72-17.43-3.57-3.14.61-6.67,2.12-9.3.29a2.31,2.31,0,0,1,.2-1c-8.35,3.08-1.41,4.15,2.36,4.49a7.21,7.21,0,0,0,3.57-.64c5.78-2.52,12-.64,24.55,5.22,13.64,6.38,39.48,18.12,56.46,28s16.4,11.32,16.34,13.26a8.63,8.63,0,0,1-.92,3.48,74.42,74.42,0,0,0,9.37,6.41c3.63,1.89,10.21,3.61,8.43-1.38A2,2,0,0,1,319.12,175.4Z" style="fill:#37474f"></path><path d="M361.53,366.74l7.45,9.73a5.44,5.44,0,0,0,5.7,1.95c7.75-2,19.95-7.95,32-14.93,10.89-6.29,19.11-12.68,22.46-16.15a12.64,12.64,0,0,0,4-9l.67-13.14a.53.53,0,0,0-.94-.37c-5.26,6.31-15.15,15-27.51,22.16-15.14,8.74-31.25,16.6-43.54,18.88A.53.53,0,0,0,361.53,366.74Z" style="fill:#455a64"></path><path d="M430.65,341.61c-10.39,14.5-47.94,31.7-58.08,34.15a.5.5,0,0,0-.37.6.5.5,0,0,0,.49.38h.12C383,374.26,421,356.87,431.46,342.2a.5.5,0,0,0-.81-.59Zm.45-4.56C419.92,352.82,381,370.31,370,372.82a.5.5,0,0,0-.37.6.49.49,0,0,0,.48.39h.12c11.06-2.54,50.35-20.21,61.66-36.17a.5.5,0,0,0-.12-.7A.51.51,0,0,0,431.1,337.05Zm.45-4.56c-11.85,16.86-50.81,34.48-64.08,37.4a.5.5,0,0,0,.11,1h.11c13.38-2.95,52.69-20.75,64.67-37.8a.5.5,0,0,0-.12-.7A.49.49,0,0,0,431.55,332.49Zm1.14-4.69a.5.5,0,0,0-.69.13c-12.63,18.1-52.79,36-67.08,39a.5.5,0,0,0,.1,1h.11c14.41-3.06,54.92-21.14,67.69-39.44A.5.5,0,0,0,432.69,327.8Z" style="fill:#37474f"></path><path d="M360.45,369.85a7.89,7.89,0,0,0-6.82-2.72c-8.93.92-23.64.9-33.17-1.88-11.1-3.25-13.15-3.52-11.1,2.42s7.42,13.82,17.08,15.49c17.3,3,31.19,1.23,38.13-2C368.05,379.49,363.75,373.73,360.45,369.85Z" style="fill:#3673FD"></path><path d="M360.45,369.85a7.89,7.89,0,0,0-6.82-2.72c-8.93.92-23.64.9-33.17-1.88-11.1-3.25-13.15-3.52-11.1,2.42s7.42,13.82,17.08,15.49c17.3,3,31.19,1.23,38.13-2C368.05,379.49,363.75,373.73,360.45,369.85Z" style="fill:#fff;opacity:0.8"></path><path d="M326.44,383.16c-9.66-1.67-15-9.55-17.08-15.49-1.93-5.59-.22-5.67,9.27-2.95,3.77,7.17,8.81,13.68,15.71,17.8,1.14.68,2.32,1.3,3.46,2A104.14,104.14,0,0,1,326.44,383.16Z" style="fill:#fafafa"></path><path d="M446.88,325.6a63.44,63.44,0,0,1-9.05,13.07,1.07,1.07,0,0,1-1.88-.77c.22-3.58.56-9.76.62-14.23a12.67,12.67,0,0,1,1.71-6.14,32.83,32.83,0,0,0,4.1-17v-.08A98.06,98.06,0,0,1,446.88,325.6Z" style="fill:#3673FD"></path><path d="M446.88,325.6a63.44,63.44,0,0,1-9.05,13.07,1.07,1.07,0,0,1-1.88-.77c.22-3.58.56-9.76.62-14.23a12.67,12.67,0,0,1,1.71-6.14,32.83,32.83,0,0,0,4.1-17v-.08A98.06,98.06,0,0,1,446.88,325.6Z" style="fill:#fff;opacity:0.8"></path><path d="M447.38,335.51c-.05-1.1-.09-2.2-.14-3.3a25.53,25.53,0,0,0-4.14,6.25,16.56,16.56,0,0,0-1.66,7.4,4,4,0,0,0,.42,2c.77,1.29,2.29.76,3.4.28a8.3,8.3,0,0,0,1.59-1c.14-.1.26-.21.39-.31A57,57,0,0,0,447.38,335.51Z" style="fill:#fafafa"></path><path d="M344.75,395.77c-6.56-1.69-16.81-3-20.77-.35-2.65,1.75.35,6.62,1.75,8.21a14.69,14.69,0,0,0,7.72,4.5,24.84,24.84,0,0,0,11.92-.68C357.19,404.41,357.74,399.13,344.75,395.77Z" style="fill:#fafafa"></path><path d="M360.76,387.35c24.35-6.74,59.91-26.83,75.56-43.21l2.17,4c-19.67,17.46-47.62,35.2-80.1,43.88Z" style="fill:#263238"></path><path d="M443.22,358.58c-1.4,2.31-4.17,4.05-5.48,1.76-1.41-2.46-2.52-4.81-7.24-.81a137.92,137.92,0,0,1-22.33,15.58c-10,5.52-17.25,9.18-24.94,12.85s-11.18,5.77-12.4,11.42-5.53,11.55-13.76,13.68a98.07,98.07,0,0,1-19.42,3.06c-13.49.95-21.49-.53-25.7-1.84a5.64,5.64,0,0,1-3.93-5.22c-.68-18.33-6.87-42.51-31-57.21-22.33-13.58-36,5.61-38.55,16.81a2.55,2.55,0,0,1-3.77,1.6L139,315c0-18.65-5.32-45.12-31.1-60.8C86.37,241.14,73,258.49,69.68,269.79,68,265.15,67.2,259.35,66.34,253c-1.48,22.06-2.09,29.29,4.89,35.22a3.18,3.18,0,0,0,5.25-2.4v-6.84l0,0,0,0c.55-12.48,7-20.41,16.81-20.41a22.94,22.94,0,0,1,11.38,3.4,41.74,41.74,0,0,1,9.69,8c9.44,10.36,15.55,25.34,15.55,38.21,0,.56,0,1.12,0,1.67h0v8.5a7.5,7.5,0,0,0,3.74,6.48l107.35,62a3.08,3.08,0,0,0,4.61-2.66v-7.5h0c.55-12.48,7-20.44,16.82-20.44a22.86,22.86,0,0,1,11.37,3.39,41.3,41.3,0,0,1,9.66,7.93.23.23,0,0,0,.07.07c9.44,10.36,15.51,25.33,15.51,38.2,0,.38,0,6.89,0,11.05a6.11,6.11,0,0,0,3,5.26c1.48.89,3.51,2.1,6.15,3.62,0,0,7.3,5,29.57,3.48,23.55-1.65,35.27-7.53,74.81-30.36,29.13-16.82,34.4-31.17,35.06-41.63v-13A32.88,32.88,0,0,1,443.22,358.58Z" style="fill:#37474f"></path><path d="M381.77,392.72c-4.26,2.36-5.94,4.94-6.93,11s-1,8.9,2.81,7.92,24.36-11.52,37-19.54c15.59-9.92,22.17-17.78,23.65-20.42s.73-4-1.8-7.19c-1.91-2.44-2.69-2.86-5.83-.32s-7.7,6.66-21,14.21C397.27,385.41,383.93,391.51,381.77,392.72Z" style="fill:#263238"></path><path d="M236.72,302.82c-4.94,25.37-5.2,51.53-2.82,77.2C232.87,354.27,233.12,328.38,236.72,302.82Zm-73.09,37.63c-.06-4.15.08-9.84.28-14,1-17,3.05-34.1,7.57-50.56a76.26,76.26,0,0,1,3-8.82C165.39,286.68,162.13,318.91,163.63,340.45ZM110.08,259.5a110.49,110.49,0,0,1,10-24.09A57.17,57.17,0,0,0,109,263.11C109.4,261.9,109.71,260.69,110.08,259.5Z" style="opacity:0.30000000000000004"></path><path d="M212.17,290.28c1.88,8.93,11.78,10.82,19.19,10.6,3.93-.12,7.16-.84,8.15-1.4,2.86-1.66,1.54-5.09,0-7.07-2.6-3.37-14.25-10.11-21.57-10.35C213.67,281.92,210.86,284,212.17,290.28Z" style="fill:#3673FD"></path><path d="M212.17,290.28c1.88,8.93,11.78,10.82,19.19,10.6,3.93-.12,7.16-.84,8.15-1.4,2.86-1.66,1.54-5.09,0-7.07-2.6-3.37-14.25-10.11-21.57-10.35C213.67,281.92,210.86,284,212.17,290.28Z" style="fill:#fff;opacity:0.30000000000000004"></path><path d="M212.17,290.28c1.88,8.93,11.78,10.82,19.19,10.6,3.93-.12,7.16-.84,8.15-1.4,2.86-1.66,1.54-5.09,0-7.07,1.44,2.73-6.19,4.41-13,2s-11.87-7.7-8.57-12.32C213.67,281.92,210.86,284,212.17,290.28Z" style="fill:#3673FD"></path><path d="M212.17,290.28c1.88,8.93,11.78,10.82,19.19,10.6-7.38-.22-13.26-4.47-15.48-9.11s-.53-9.12,2.07-9.71C213.67,281.92,210.86,284,212.17,290.28Z" style="fill:#37474f"></path></g></g></svg>
